# xmcd
#
# Track frame offsets:
#	150
#	13125
#	24712
#	36299
#	54336
#	74473
#	87410
#	103647
#	115384
#	126071
#	138558
#	151795
#	169382
#	179769
#
# Disc length: 2514 seconds
#
# Revision: 1
# Processed by: cddbd v1.5.2PL0 Copyright (c) Steve Scherf et al.
# Submitted via: audiograbber 1.83.01
#
DISCID=c709d00e
DTITLE=Searchin'  The Roos - Jug Saw and Kitchenware
DYEAR=2007
DGENRE=Skiffle
TTITLE0=You May Leave
TTITLE1=Fancy Talking Tinker
TTITLE2=Walk Right In
TTITLE3=John Hardy
TTITLE4=Diggin'  My Potatoes
TTITLE5=Boodle Am Shake
TTITLE6=Blue Moon Of Kentucky
TTITLE7=I'm gonna Get it
TTITLE8=Yes, we Have No Bananas
TTITLE9=2:19 Blues
TTITLE10=Long Lost Lover Blues
TTITLE11=Bill Bailey
TTITLE12=Downtown Blues
TTITLE13=Good Night Irene
EXTD=
EXTT0=
EXTT1=
EXTT2=
EXTT3=
EXTT4=
EXTT5=
EXTT6=
EXTT7=
EXTT8=
EXTT9=
EXTT10=
EXTT11=
EXTT12=
EXTT13=
PLAYORDER=
